<svg width="44" height="44" viewBox="0 0 44 44" fill="none" xmlns="http://www.w3.org/2000/svg">
<path d="M41.8481 5.87951C38.7527 13.5979 30.9941 24.0901 24.5019 29.296L20.5422 32.4717C20.0397 32.8335 19.5372 33.1551 18.9744 33.3762C18.9744 33.0144 18.9543 32.6124 18.894 32.2305C18.6729 30.5421 17.9091 28.9744 16.5624 27.6277C15.1956 26.2609 13.5273 25.4569 11.8188 25.2358C11.4168 25.2157 11.0148 25.1755 10.6128 25.2157C10.8339 24.5926 11.1756 24.0097 11.5977 23.5273L14.7333 19.5676C19.9191 13.0753 30.4514 5.27652 38.1497 2.20122C39.3356 1.75903 40.4813 2.08062 41.2049 2.82432C41.9687 3.56802 42.3305 4.71372 41.8481 5.87951Z" stroke="#F2EFE9" stroke-width="3" stroke-linecap="round" stroke-linejoin="round"/>
<path d="M18.9742 33.3763C18.9742 35.5873 18.1301 37.6977 16.5422 39.3057C15.3161 40.5318 13.6478 41.376 11.6579 41.6373L6.71328 42.18C4.01989 42.4815 1.70839 40.1901 2.02999 37.4565L2.57269 32.512C3.05509 28.1101 6.73338 25.2961 10.6328 25.2157C11.0348 25.1956 11.4569 25.2157 11.8388 25.2358C13.5473 25.4569 15.2156 26.2408 16.5824 27.6277C17.9291 28.9744 18.6928 30.5422 18.9139 32.2306C18.934 32.6125 18.9742 32.9944 18.9742 33.3763Z" stroke="#F2EFE9" stroke-width="3" stroke-linecap="round" stroke-linejoin="round"/>
<path d="M26.6323 27.0448C26.6323 21.7987 22.3711 17.5375 17.125 17.5375" stroke="#F2EFE9" stroke-width="3" stroke-linecap="round" stroke-linejoin="round"/>
</svg>
