<svg width="402" height="134" viewBox="0 0 402 134" fill="none" xmlns="http://www.w3.org/2000/svg">
<g opacity="0.3">
<g filter="url(#filter0_ddd_4_133)">
<rect x="21" y="19.2386" width="359.573" height="91.5017" rx="20.7958" fill="#E88830"/>
</g>
<g clip-path="url(#clip0_4_133)">
<g filter="url(#filter1_ddd_4_133)">
<rect x="21.0002" y="13" width="359.573" height="91.5017" fill="#F2CD88"/>
</g>
<rect opacity="0.5" x="20.999" y="59.3605" width="359.573" height="45.1409" fill="#F2CD88"/>
<g style="mix-blend-mode:overlay" opacity="0.7">
<ellipse cx="200.786" cy="96.5711" rx="168.229" ry="37.2107" transform="rotate(-180 200.786 96.5711)" fill="url(#paint0_radial_4_133)"/>
</g>
<g style="mix-blend-mode:overlay" opacity="0.7">
<ellipse cx="200.884" cy="19.2386" rx="167.407" ry="14.5571" transform="rotate(-180 200.884 19.2386)" fill="url(#paint1_radial_4_133)"/>
</g>
<g style="mix-blend-mode:overlay">
<rect x="41.7959" y="12.9999" width="316.097" height="2.07958" fill="url(#paint2_linear_4_133)"/>
</g>
<g style="mix-blend-mode:overlay" opacity="0.5">
<rect x="41.7959" y="102.422" width="316.097" height="2.07958" fill="url(#paint3_linear_4_133)"/>
</g>
<path d="M91.0778 57.3864C91.0778 54.7911 91.6143 52.4827 92.6874 50.4614C93.7854 48.4151 95.3326 46.8304 97.329 45.7075C99.3254 44.5595 101.621 43.9856 104.217 43.9856C107.511 43.9856 110.281 44.8715 112.527 46.6433C114.773 48.3901 116.22 50.7733 116.869 53.7929H108.971C108.496 52.7947 107.835 52.0335 106.987 51.5095C106.163 50.9854 105.202 50.7234 104.104 50.7234C102.407 50.7234 101.047 51.3348 100.024 52.5576C99.0259 53.7554 98.5268 55.365 98.5268 57.3864C98.5268 59.4327 99.0259 61.0673 100.024 62.2901C101.047 63.4879 102.407 64.0868 104.104 64.0868C105.202 64.0868 106.163 63.8248 106.987 63.3007C107.835 62.7767 108.496 62.0156 108.971 61.0174H116.869C116.22 64.0369 114.773 66.4326 112.527 68.2044C110.281 69.9512 107.511 70.8247 104.217 70.8247C101.621 70.8247 99.3254 70.2632 97.329 69.1402C95.3326 67.9923 93.7854 66.4076 92.6874 64.3863C91.6143 62.34 91.0778 60.0067 91.0778 57.3864ZM132.995 70.8995C130.525 70.8995 128.254 70.3256 126.182 69.1776C124.111 68.0048 122.464 66.3952 121.241 64.3488C120.044 62.2776 119.445 59.9443 119.445 57.349C119.445 54.7536 120.044 52.4328 121.241 50.3865C122.464 48.3153 124.111 46.7057 126.182 45.5577C128.254 44.4098 130.525 43.8358 132.995 43.8358C135.491 43.8358 137.762 44.4098 139.808 45.5577C141.879 46.7057 143.514 48.3153 144.712 50.3865C145.909 52.4328 146.508 54.7536 146.508 57.349C146.508 59.9443 145.909 62.2776 144.712 64.3488C143.514 66.3952 141.879 68.0048 139.808 69.1776C137.737 70.3256 135.466 70.8995 132.995 70.8995ZM132.995 64.0868C134.867 64.0868 136.339 63.4754 137.412 62.2526C138.51 61.0298 139.059 59.3953 139.059 57.349C139.059 55.2527 138.51 53.6057 137.412 52.4079C136.339 51.1851 134.867 50.5737 132.995 50.5737C131.099 50.5737 129.614 51.1851 128.541 52.4079C127.468 53.6057 126.931 55.2527 126.931 57.349C126.931 59.4202 127.468 61.0673 128.541 62.2901C129.614 63.4879 131.099 64.0868 132.995 64.0868ZM174.25 70.6375H166.913L157.143 55.8891V70.6375H149.806V44.2476H157.143L166.913 59.1832V44.2476H174.25V70.6375ZM198.306 44.2476V50.0871H191.269V70.6375H183.932V50.0871H176.969V44.2476H198.306ZM208.357 44.2476V70.6375H201.02V44.2476H208.357ZM236.979 70.6375H229.642L219.872 55.8891V70.6375H212.535V44.2476H219.872L229.642 59.1832V44.2476H236.979V70.6375ZM248.345 44.2476V59.5575C248.345 60.9799 248.669 62.0779 249.318 62.8515C249.992 63.6252 251.003 64.012 252.35 64.012C253.698 64.012 254.709 63.6252 255.382 62.8515C256.081 62.053 256.43 60.955 256.43 59.5575V44.2476H263.767V59.5575C263.767 61.9781 263.256 64.0494 262.232 65.7713C261.209 67.4682 259.812 68.7534 258.04 69.6268C256.293 70.4753 254.347 70.8995 252.201 70.8995C250.054 70.8995 248.133 70.4753 246.436 69.6268C244.764 68.7534 243.441 67.4682 242.468 65.7713C241.52 64.0743 241.046 62.0031 241.046 59.5575V44.2476H248.345ZM275.143 50.1245V54.4292H283.566V60.0067H275.143V64.7606H284.689V70.6375H267.807V44.2476H284.689V50.1245H275.143ZM301.678 70.6375L296.437 60.9051H295.651V70.6375H288.314V44.2476H299.881C302.002 44.2476 303.799 44.6219 305.271 45.3706C306.743 46.0943 307.854 47.1049 308.603 48.4026C309.351 49.6753 309.726 51.1102 309.726 52.7073C309.726 54.5041 309.226 56.0887 308.228 57.4613C307.255 58.8088 305.82 59.7696 303.923 60.3436L309.875 70.6375H301.678ZM295.651 55.8891H299.282C300.28 55.8891 301.029 55.652 301.528 55.1779C302.027 54.7037 302.276 54.0175 302.276 53.1191C302.276 52.2706 302.014 51.6093 301.49 51.1352C300.991 50.6361 300.255 50.3865 299.282 50.3865H295.651V55.8891Z" fill="#795879"/>
</g>
</g>
<defs>
<filter id="filter0_ddd_4_133" x="0.204155" y="0.522387" width="401.164" height="133.093" filterUnits="userSpaceOnUse" color-interpolation-filters="sRGB">
<feFlood flood-opacity="0" result="BackgroundImageFix"/>
<feColorMatrix in="SourceAlpha" type="matrix" values="0 0 0 0 0 0 0 0 0 0 0 0 0 0 0 0 0 0 127 0" result="hardAlpha"/>
<feOffset dy="2.07958"/>
<feGaussianBlur stdDeviation="10.3979"/>
<feColorMatrix type="matrix" values="0 0 0 0 0 0 0 0 0 0 0 0 0 0 0 0 0 0 0.2 0"/>
<feBlend mode="normal" in2="BackgroundImageFix" result="effect1_dropShadow_4_133"/>
<feColorMatrix in="SourceAlpha" type="matrix" values="0 0 0 0 0 0 0 0 0 0 0 0 0 0 0 0 0 0 127 0" result="hardAlpha"/>
<feOffset dy="8.31834"/>
<feGaussianBlur stdDeviation="5.19896"/>
<feColorMatrix type="matrix" values="0 0 0 0 0 0 0 0 0 0 0 0 0 0 0 0 0 0 0.12 0"/>
<feBlend mode="normal" in2="effect1_dropShadow_4_133" result="effect2_dropShadow_4_133"/>
<feColorMatrix in="SourceAlpha" type="matrix" values="0 0 0 0 0 0 0 0 0 0 0 0 0 0 0 0 0 0 127 0" result="hardAlpha"/>
<feOffset dy="4.15917"/>
<feGaussianBlur stdDeviation="4.15917"/>
<feColorMatrix type="matrix" values="0 0 0 0 0 0 0 0 0 0 0 0 0 0 0 0 0 0 0.14 0"/>
<feBlend mode="normal" in2="effect2_dropShadow_4_133" result="effect3_dropShadow_4_133"/>
<feBlend mode="normal" in="SourceGraphic" in2="effect3_dropShadow_4_133" result="shape"/>
</filter>
<filter id="filter1_ddd_4_133" x="0.204399" y="-5.71626" width="401.164" height="133.093" filterUnits="userSpaceOnUse" color-interpolation-filters="sRGB">
<feFlood flood-opacity="0" result="BackgroundImageFix"/>
<feColorMatrix in="SourceAlpha" type="matrix" values="0 0 0 0 0 0 0 0 0 0 0 0 0 0 0 0 0 0 127 0" result="hardAlpha"/>
<feOffset dy="2.07958"/>
<feGaussianBlur stdDeviation="10.3979"/>
<feColorMatrix type="matrix" values="0 0 0 0 0 0 0 0 0 0 0 0 0 0 0 0 0 0 0.2 0"/>
<feBlend mode="normal" in2="BackgroundImageFix" result="effect1_dropShadow_4_133"/>
<feColorMatrix in="SourceAlpha" type="matrix" values="0 0 0 0 0 0 0 0 0 0 0 0 0 0 0 0 0 0 127 0" result="hardAlpha"/>
<feOffset dy="8.31834"/>
<feGaussianBlur stdDeviation="5.19896"/>
<feColorMatrix type="matrix" values="0 0 0 0 0 0 0 0 0 0 0 0 0 0 0 0 0 0 0.12 0"/>
<feBlend mode="normal" in2="effect1_dropShadow_4_133" result="effect2_dropShadow_4_133"/>
<feColorMatrix in="SourceAlpha" type="matrix" values="0 0 0 0 0 0 0 0 0 0 0 0 0 0 0 0 0 0 127 0" result="hardAlpha"/>
<feOffset dy="4.15917"/>
<feGaussianBlur stdDeviation="4.15917"/>
<feColorMatrix type="matrix" values="0 0 0 0 0 0 0 0 0 0 0 0 0 0 0 0 0 0 0.14 0"/>
<feBlend mode="normal" in2="effect2_dropShadow_4_133" result="effect3_dropShadow_4_133"/>
<feBlend mode="normal" in="SourceGraphic" in2="effect3_dropShadow_4_133" result="shape"/>
</filter>
<radialGradient id="paint0_radial_4_133" cx="0" cy="0" r="1" gradientUnits="userSpaceOnUse" gradientTransform="translate(200.786 96.5711) rotate(90) scale(37.2107 168.229)">
<stop stop-color="white"/>
<stop offset="1" stop-color="white" stop-opacity="0"/>
</radialGradient>
<radialGradient id="paint1_radial_4_133" cx="0" cy="0" r="1" gradientUnits="userSpaceOnUse" gradientTransform="translate(200.884 19.2386) rotate(90) scale(14.5571 167.407)">
<stop stop-color="white"/>
<stop offset="1" stop-color="white" stop-opacity="0"/>
</radialGradient>
<linearGradient id="paint2_linear_4_133" x1="356.133" y1="12.9999" x2="41.0013" y2="12.9999" gradientUnits="userSpaceOnUse">
<stop stop-color="white" stop-opacity="0"/>
<stop offset="0.492063" stop-color="white"/>
<stop offset="1" stop-color="white" stop-opacity="0"/>
</linearGradient>
<linearGradient id="paint3_linear_4_133" x1="356.133" y1="102.422" x2="41.0013" y2="102.422" gradientUnits="userSpaceOnUse">
<stop stop-color="white" stop-opacity="0"/>
<stop offset="0.492063" stop-color="white"/>
<stop offset="1" stop-color="white" stop-opacity="0"/>
</linearGradient>
<clipPath id="clip0_4_133">
<rect x="21.0002" y="13" width="359.573" height="91.5017" rx="20.7958" fill="white"/>
</clipPath>
</defs>
</svg>
