<svg width="402" height="134" viewBox="0 0 402 134" fill="none" xmlns="http://www.w3.org/2000/svg">
<g filter="url(#filter0_ddd_2_18)">
<rect x="21" y="19.2386" width="359.573" height="91.5017" rx="20.7958" fill="#E88830"/>
</g>
<g clip-path="url(#clip0_2_18)">
<g filter="url(#filter1_ddd_2_18)">
<rect x="21.0002" y="13" width="359.573" height="91.5017" fill="#F2CD88"/>
</g>
<rect opacity="0.5" x="20.999" y="59.3605" width="359.573" height="45.1409" fill="#F2CD88"/>
<g style="mix-blend-mode:overlay" opacity="0.7">
<ellipse cx="200.786" cy="96.5711" rx="168.229" ry="37.2107" transform="rotate(-180 200.786 96.5711)" fill="url(#paint0_radial_2_18)"/>
</g>
<g style="mix-blend-mode:overlay" opacity="0.7">
<ellipse cx="200.884" cy="19.2386" rx="167.407" ry="14.5571" transform="rotate(-180 200.884 19.2386)" fill="url(#paint1_radial_2_18)"/>
</g>
<g style="mix-blend-mode:overlay">
<rect x="41.7959" y="12.9999" width="316.097" height="2.07958" fill="url(#paint2_linear_2_18)"/>
</g>
<g style="mix-blend-mode:overlay" opacity="0.5">
<rect x="41.7959" y="102.422" width="316.097" height="2.07958" fill="url(#paint3_linear_2_18)"/>
</g>
<path d="M75.8458 57.3864C75.8458 54.7911 76.3824 52.4827 77.4554 50.4614C78.5534 48.4151 80.1007 46.8304 82.0971 45.7075C84.0935 44.5595 86.3893 43.9856 88.9846 43.9856C92.2787 43.9856 95.0487 44.8715 97.2947 46.6433C99.5406 48.3901 100.988 50.7733 101.637 53.7929H93.7386C93.2644 52.7947 92.6031 52.0335 91.7546 51.5095C90.9311 50.9854 89.9704 50.7234 88.8723 50.7234C87.1754 50.7234 85.8153 51.3348 84.7922 52.5576C83.794 53.7554 83.2949 55.365 83.2949 57.3864C83.2949 59.4327 83.794 61.0673 84.7922 62.2901C85.8153 63.4879 87.1754 64.0868 88.8723 64.0868C89.9704 64.0868 90.9311 63.8248 91.7546 63.3007C92.6031 62.7767 93.2644 62.0156 93.7386 61.0174H101.637C100.988 64.0369 99.5406 66.4326 97.2947 68.2044C95.0487 69.9512 92.2787 70.8247 88.9846 70.8247C86.3893 70.8247 84.0935 70.2632 82.0971 69.1402C80.1007 67.9923 78.5534 66.4076 77.4554 64.3863C76.3824 62.34 75.8458 60.0067 75.8458 57.3864ZM117.763 70.8995C115.293 70.8995 113.022 70.3256 110.951 69.1776C108.879 68.0048 107.232 66.3952 106.009 64.3488C104.812 62.2776 104.213 59.9443 104.213 57.349C104.213 54.7536 104.812 52.4328 106.009 50.3865C107.232 48.3153 108.879 46.7057 110.951 45.5577C113.022 44.4098 115.293 43.8358 117.763 43.8358C120.259 43.8358 122.53 44.4098 124.576 45.5577C126.647 46.7057 128.282 48.3153 129.48 50.3865C130.677 52.4328 131.276 54.7536 131.276 57.349C131.276 59.9443 130.677 62.2776 129.48 64.3488C128.282 66.3952 126.647 68.0048 124.576 69.1776C122.505 70.3256 120.234 70.8995 117.763 70.8995ZM117.763 64.0868C119.635 64.0868 121.107 63.4754 122.18 62.2526C123.278 61.0298 123.827 59.3953 123.827 57.349C123.827 55.2527 123.278 53.6057 122.18 52.4079C121.107 51.1851 119.635 50.5737 117.763 50.5737C115.867 50.5737 114.382 51.1851 113.309 52.4079C112.236 53.6057 111.699 55.2527 111.699 57.349C111.699 59.4202 112.236 61.0673 113.309 62.2901C114.382 63.4879 115.867 64.0868 117.763 64.0868ZM165.381 44.2476V70.6375H158.045V56.0763L153.066 70.6375H146.927L141.911 55.964V70.6375H134.575V44.2476H143.446L150.072 61.3917L156.547 44.2476H165.381ZM200.365 44.2476V70.6375H193.028V56.0763L188.05 70.6375H181.911L176.895 55.964V70.6375H169.558V44.2476H178.429L185.055 61.3917L191.531 44.2476H200.365ZM211.878 50.1245V54.4292H220.3V60.0067H211.878V64.7606H221.423V70.6375H204.541V44.2476H221.423V50.1245H211.878ZM249.492 70.6375H242.155L232.385 55.8891V70.6375H225.049V44.2476H232.385L242.155 59.1832V44.2476H249.492V70.6375ZM252.773 57.3864C252.773 54.7911 253.31 52.4827 254.383 50.4614C255.481 48.4151 257.028 46.8304 259.024 45.7075C261.021 44.5595 263.316 43.9856 265.912 43.9856C269.206 43.9856 271.976 44.8715 274.222 46.6433C276.468 48.3901 277.915 50.7733 278.564 53.7929H270.666C270.192 52.7947 269.53 52.0335 268.682 51.5095C267.858 50.9854 266.898 50.7234 265.799 50.7234C264.103 50.7234 262.743 51.3348 261.719 52.5576C260.721 53.7554 260.222 55.365 260.222 57.3864C260.222 59.4327 260.721 61.0673 261.719 62.2901C262.743 63.4879 264.103 64.0868 265.799 64.0868C266.898 64.0868 267.858 63.8248 268.682 63.3007C269.53 62.7767 270.192 62.0156 270.666 61.0174H278.564C277.915 64.0369 276.468 66.4326 274.222 68.2044C271.976 69.9512 269.206 70.8247 265.912 70.8247C263.316 70.8247 261.021 70.2632 259.024 69.1402C257.028 67.9923 255.481 66.4076 254.383 64.3863C253.31 62.34 252.773 60.0067 252.773 57.3864ZM289.375 50.1245V54.4292H297.797V60.0067H289.375V64.7606H298.92V70.6375H282.038V44.2476H298.92V50.1245H289.375ZM315.909 70.6375L310.669 60.9051H309.882V70.6375H302.546V44.2476H314.112C316.233 44.2476 318.03 44.6219 319.503 45.3706C320.975 46.0943 322.085 47.1049 322.834 48.4026C323.583 49.6753 323.957 51.1102 323.957 52.7073C323.957 54.5041 323.458 56.0887 322.46 57.4613C321.487 58.8088 320.052 59.7696 318.155 60.3436L324.107 70.6375H315.909ZM309.882 55.8891H313.513C314.512 55.8891 315.26 55.652 315.759 55.1779C316.258 54.7037 316.508 54.0175 316.508 53.1191C316.508 52.2706 316.246 51.6093 315.722 51.1352C315.223 50.6361 314.487 50.3865 313.513 50.3865H309.882V55.8891Z" fill="#795879"/>
</g>
<defs>
<filter id="filter0_ddd_2_18" x="0.204155" y="0.522357" width="401.164" height="133.093" filterUnits="userSpaceOnUse" color-interpolation-filters="sRGB">
<feFlood flood-opacity="0" result="BackgroundImageFix"/>
<feColorMatrix in="SourceAlpha" type="matrix" values="0 0 0 0 0 0 0 0 0 0 0 0 0 0 0 0 0 0 127 0" result="hardAlpha"/>
<feOffset dy="2.07958"/>
<feGaussianBlur stdDeviation="10.3979"/>
<feColorMatrix type="matrix" values="0 0 0 0 0 0 0 0 0 0 0 0 0 0 0 0 0 0 0.2 0"/>
<feBlend mode="normal" in2="BackgroundImageFix" result="effect1_dropShadow_2_18"/>
<feColorMatrix in="SourceAlpha" type="matrix" values="0 0 0 0 0 0 0 0 0 0 0 0 0 0 0 0 0 0 127 0" result="hardAlpha"/>
<feOffset dy="8.31834"/>
<feGaussianBlur stdDeviation="5.19896"/>
<feColorMatrix type="matrix" values="0 0 0 0 0 0 0 0 0 0 0 0 0 0 0 0 0 0 0.12 0"/>
<feBlend mode="normal" in2="effect1_dropShadow_2_18" result="effect2_dropShadow_2_18"/>
<feColorMatrix in="SourceAlpha" type="matrix" values="0 0 0 0 0 0 0 0 0 0 0 0 0 0 0 0 0 0 127 0" result="hardAlpha"/>
<feOffset dy="4.15917"/>
<feGaussianBlur stdDeviation="4.15917"/>
<feColorMatrix type="matrix" values="0 0 0 0 0 0 0 0 0 0 0 0 0 0 0 0 0 0 0.14 0"/>
<feBlend mode="normal" in2="effect2_dropShadow_2_18" result="effect3_dropShadow_2_18"/>
<feBlend mode="normal" in="SourceGraphic" in2="effect3_dropShadow_2_18" result="shape"/>
</filter>
<filter id="filter1_ddd_2_18" x="0.204308" y="-5.71626" width="401.164" height="133.093" filterUnits="userSpaceOnUse" color-interpolation-filters="sRGB">
<feFlood flood-opacity="0" result="BackgroundImageFix"/>
<feColorMatrix in="SourceAlpha" type="matrix" values="0 0 0 0 0 0 0 0 0 0 0 0 0 0 0 0 0 0 127 0" result="hardAlpha"/>
<feOffset dy="2.07958"/>
<feGaussianBlur stdDeviation="10.3979"/>
<feColorMatrix type="matrix" values="0 0 0 0 0 0 0 0 0 0 0 0 0 0 0 0 0 0 0.2 0"/>
<feBlend mode="normal" in2="BackgroundImageFix" result="effect1_dropShadow_2_18"/>
<feColorMatrix in="SourceAlpha" type="matrix" values="0 0 0 0 0 0 0 0 0 0 0 0 0 0 0 0 0 0 127 0" result="hardAlpha"/>
<feOffset dy="8.31834"/>
<feGaussianBlur stdDeviation="5.19896"/>
<feColorMatrix type="matrix" values="0 0 0 0 0 0 0 0 0 0 0 0 0 0 0 0 0 0 0.12 0"/>
<feBlend mode="normal" in2="effect1_dropShadow_2_18" result="effect2_dropShadow_2_18"/>
<feColorMatrix in="SourceAlpha" type="matrix" values="0 0 0 0 0 0 0 0 0 0 0 0 0 0 0 0 0 0 127 0" result="hardAlpha"/>
<feOffset dy="4.15917"/>
<feGaussianBlur stdDeviation="4.15917"/>
<feColorMatrix type="matrix" values="0 0 0 0 0 0 0 0 0 0 0 0 0 0 0 0 0 0 0.14 0"/>
<feBlend mode="normal" in2="effect2_dropShadow_2_18" result="effect3_dropShadow_2_18"/>
<feBlend mode="normal" in="SourceGraphic" in2="effect3_dropShadow_2_18" result="shape"/>
</filter>
<radialGradient id="paint0_radial_2_18" cx="0" cy="0" r="1" gradientUnits="userSpaceOnUse" gradientTransform="translate(200.786 96.5711) rotate(90) scale(37.2107 168.229)">
<stop stop-color="white"/>
<stop offset="1" stop-color="white" stop-opacity="0"/>
</radialGradient>
<radialGradient id="paint1_radial_2_18" cx="0" cy="0" r="1" gradientUnits="userSpaceOnUse" gradientTransform="translate(200.884 19.2386) rotate(90) scale(14.5571 167.407)">
<stop stop-color="white"/>
<stop offset="1" stop-color="white" stop-opacity="0"/>
</radialGradient>
<linearGradient id="paint2_linear_2_18" x1="356.133" y1="12.9999" x2="41.0012" y2="12.9999" gradientUnits="userSpaceOnUse">
<stop stop-color="white" stop-opacity="0"/>
<stop offset="0.492063" stop-color="white"/>
<stop offset="1" stop-color="white" stop-opacity="0"/>
</linearGradient>
<linearGradient id="paint3_linear_2_18" x1="356.133" y1="102.422" x2="41.0012" y2="102.422" gradientUnits="userSpaceOnUse">
<stop stop-color="white" stop-opacity="0"/>
<stop offset="0.492063" stop-color="white"/>
<stop offset="1" stop-color="white" stop-opacity="0"/>
</linearGradient>
<clipPath id="clip0_2_18">
<rect x="21.0002" y="13" width="359.573" height="91.5017" rx="20.7958" fill="white"/>
</clipPath>
</defs>
</svg>
