<svg width="232" height="60" viewBox="0 0 232 60" fill="none" xmlns="http://www.w3.org/2000/svg">
<path d="M76.3163 39.2516H71.5705V12.9156H76.4765C76.4765 13.2586 76.5299 13.5934 76.5299 13.9315V23.7897C77.0333 23.7444 77.1628 23.416 77.3506 23.1879C79.9274 20.0011 82.5107 16.8191 85.052 13.6048C85.4097 13.0709 86.0296 12.77 86.6706 12.8202C88.1015 12.8736 89.542 12.8202 90.9745 12.8202C91.2561 12.8202 91.5362 12.8477 91.9959 12.8736L81.4764 25.7989L91.8097 39.1707C91.7094 39.2273 91.6009 39.271 91.4892 39.3001C89.7897 39.3001 88.0917 39.3001 86.3922 39.3227C85.8564 39.3227 85.6169 39.0024 85.345 38.6579C83.21 35.9482 81.0718 33.2386 78.9271 30.529C78.7361 30.2831 78.5208 30.0566 78.2441 29.7396C77.6338 30.5063 77.0576 31.1696 76.5672 31.883C76.428 32.1726 76.3729 32.4945 76.4069 32.8148C76.4069 34.5975 76.4069 36.3802 76.3843 38.1629C76.3843 38.5155 76.3389 38.8536 76.3179 39.2499L76.3163 39.2516Z" fill="#F2EFE9"/>
<path d="M114.647 12.8574C116.257 12.7555 117.769 12.7813 119.441 12.8218C119.525 15.2693 119.414 17.6215 119.495 20.0868C119.825 19.9623 120.034 19.8992 120.231 19.8021C127.304 16.3128 134.056 20.9215 135.309 27.0542C136.511 32.7371 132.874 38.3198 127.188 39.5201C126.992 39.5605 126.796 39.5977 126.599 39.6269C120.051 40.5667 115.574 35.615 114.807 31.3233C114.681 30.6034 114.616 29.8738 114.616 29.1442C114.598 24.0485 114.598 18.9561 114.616 13.8652C114.598 13.553 114.629 13.2327 114.647 12.8574ZM124.98 23.4823C121.947 23.3044 119.525 26.3343 119.512 29.1734C119.499 32.0124 121.871 34.9679 124.949 34.9453C128.026 34.9226 130.519 32.3473 130.587 29.1507C130.65 26.2405 127.955 23.3157 124.982 23.4807L124.98 23.4823Z" fill="#F2EFE9"/>
<path d="M111.997 39.279H107.35L107.104 38.2502C106.748 38.4281 106.439 38.5883 106.131 38.7323C100.906 41.1863 94.6795 38.9442 92.2241 33.7223C91.7887 32.797 91.4925 31.815 91.3436 30.804C90.5877 25.9703 93.2309 21.2451 97.7468 19.3588C103.129 17.2106 109.234 19.828 111.384 25.2068C111.648 25.8652 111.843 26.5495 111.968 27.2467C112.036 27.7093 112.065 28.1785 112.052 28.646V38.4783C112.042 38.7096 112.017 38.9426 111.994 39.2807L111.997 39.279ZM96.0991 29.2769C96.1929 32.509 98.7261 35.0261 101.803 34.9501C104.88 34.8741 107.258 32.124 107.154 28.9323C107.07 26.124 104.666 23.2979 101.46 23.4775C98.3991 23.6457 96.0246 26.213 96.0991 29.2753V29.2769Z" fill="#F2EFE9"/>
<path d="M158.445 39.2791H153.838L153.571 38.268C153.287 38.3974 153.053 38.4912 152.832 38.6061C145.936 42.034 138.489 37.2683 137.74 30.3963C137.167 25.5417 139.986 20.9215 144.567 19.2084C150.017 17.2607 156.016 20.0981 157.963 25.5449C158.126 26.0011 158.257 26.467 158.356 26.941C158.469 27.5751 158.523 28.2173 158.516 28.8611C158.516 31.9817 158.516 35.1006 158.494 38.2518C158.494 38.5689 158.463 38.8795 158.445 39.2774V39.2791ZM142.586 29.1572C142.544 31.0968 143.495 32.9232 145.109 34.0022C147.107 35.3804 149.789 35.209 151.593 33.588C153.06 32.3198 153.806 30.4109 153.588 28.4842C153.4 26.3489 151.759 24.2507 149.761 23.6846C146.827 22.79 143.72 24.4432 142.825 27.3761C142.649 27.9536 142.568 28.5554 142.586 29.1572Z" fill="#F2EFE9"/>
<path d="M179.351 39.3179H173.416C173.063 39.3017 172.742 39.1092 172.564 38.8051C171.221 37.1761 169.876 35.5551 168.529 33.9374C168.328 33.6916 168.11 33.4651 167.833 33.1529C167.242 33.7449 166.719 34.3985 166.273 35.1054C166.185 35.3222 166.153 35.5551 166.179 35.7881V38.3376C166.179 38.6223 166.148 38.9086 166.13 39.2289H161.242C161.214 38.8584 161.166 38.4977 161.166 38.1321L161.138 16.5247V13.8053C161.138 13.5158 161.166 13.2311 161.179 12.9625C161.883 12.7263 165.094 12.681 166.085 12.9043C166.161 17.539 166.085 22.2011 166.125 26.8633L166.303 26.9474C166.499 26.7161 166.705 26.5009 166.888 26.247C168.573 24.0712 170.272 21.9099 171.927 19.7083C172.247 19.2165 172.814 18.9447 173.398 18.9997C175.062 19.045 176.734 18.9997 178.581 18.9997C177.953 19.9752 177.278 20.7824 176.663 21.5945C176.048 22.4066 175.387 23.2704 174.749 24.1084L172.836 26.6271C172.198 27.4602 171.566 28.2982 170.892 29.1895L179.353 39.3163L179.351 39.3179Z" fill="#F2EFE9"/>
<path d="M188.984 39.7158C183.119 39.8582 178.414 34.7544 178.539 28.9517C178.658 23.4823 183.466 18.5807 188.951 18.5807C194.749 18.626 199.498 23.649 199.427 29.3222C199.356 34.9113 194.477 39.9164 188.982 39.7158H188.984ZM189.065 23.4823C188.655 23.5034 188.247 23.5454 187.842 23.6118C185.368 24.2006 183.576 26.3489 183.445 28.8886C183.271 31.2909 184.783 33.7919 187.035 34.5942C188.778 35.209 190.518 35.1507 192.038 33.9698C193.951 32.4896 194.798 30.5468 194.393 28.1089C194.063 26.0981 192.056 23.3756 189.065 23.4823Z" fill="#F2EFE9"/>
<path d="M212.369 39.711C206.487 39.863 201.84 34.7495 201.916 29.0456C201.992 23.5196 206.822 18.563 212.321 18.5985C218.119 18.639 222.877 23.6344 222.805 29.3351C222.751 34.9469 217.845 39.9116 212.369 39.711ZM212.369 23.4565C211.961 23.4856 211.555 23.5341 211.152 23.6037C208.718 24.2071 206.962 26.3279 206.826 28.832C206.635 31.1939 208.114 33.6899 210.296 34.5279C212.08 35.2009 213.828 35.1604 215.385 33.9747C217.275 32.6773 218.216 30.3818 217.78 28.1316C217.463 26.1208 215.453 23.3626 212.394 23.4565H212.371H212.369Z" fill="#F2EFE9"/>
<path d="M51.7861 20.7355C53.0357 20.7355 53.0373 18.7943 51.7861 18.7943C50.5349 18.7943 50.5349 20.7355 51.7861 20.7355Z" fill="#F2EFE9"/>
<path d="M22.4227 28.9598C23.7937 32.1564 25.1647 35.3529 26.5373 38.5495C28.7224 43.6436 30.9075 48.7361 33.0927 53.8301C33.5928 54.9965 34.0946 56.1645 34.5948 57.3308C34.8019 57.8129 35.642 57.8016 35.8524 57.3308C37.2396 54.2281 38.6267 51.1254 40.0139 48.0226C42.2282 43.0709 44.4424 38.1176 46.6567 33.1658C47.1698 32.0205 47.6813 30.8736 48.1944 29.7282C48.5732 28.8806 47.3187 28.138 46.9367 28.9938C45.5496 32.0965 44.1624 35.1993 42.7753 38.302C40.561 43.2537 38.3467 48.2071 36.1324 53.1588C35.6193 54.3041 35.1079 55.4511 34.5948 56.5964H35.8524C34.4815 53.3998 33.1105 50.2033 31.7379 47.0067C29.5528 41.9126 27.3676 36.8202 25.1825 31.7261C24.6823 30.5597 24.1806 29.3918 23.6804 28.2254C23.3114 27.3664 22.0569 28.1073 22.4227 28.9598Z" fill="#F2EFE9"/>
<path d="M19.3603 20.7355C20.6099 20.7355 20.6115 18.7943 19.3603 18.7943C18.1091 18.7943 18.1091 20.7355 19.3603 20.7355Z" fill="#F2EFE9"/>
<path d="M48.2591 14.5818C44.7613 11.086 41.2635 7.59018 37.7656 4.09436C37.2639 3.59287 36.7621 3.09139 36.2603 2.58991C35.8897 2.21946 35.2584 2.21784 34.8861 2.58991C31.61 5.86411 28.3339 9.1383 25.0579 12.4125C24.582 12.8881 24.1045 13.3653 23.6286 13.8409C22.7432 14.7258 24.1174 16.0992 25.0028 15.2143C28.2789 11.9401 31.555 8.66594 34.8311 5.39174C35.307 4.91614 35.7844 4.43892 36.2603 3.96332H34.8861C38.384 7.45914 41.8818 10.955 45.3796 14.4508C45.8814 14.9523 46.3832 15.4538 46.8849 15.9552C47.7703 16.8401 49.1445 15.4667 48.2591 14.5818Z" fill="#F2EFE9"/>
<path d="M24.9624 21.0461C24.9478 20.8762 24.8361 20.8326 24.76 20.7711C23.6885 19.9056 22.6186 19.0386 21.5374 18.1844C21.4548 18.1294 21.3901 18.0566 21.3447 17.9725C21.3447 17.9725 21.2492 17.7444 21.2492 17.6312V14.3181C21.0793 14.3327 21.0356 14.4443 20.9741 14.5204C20.1081 15.5913 19.2405 16.6606 18.3859 17.7412C18.2936 17.8771 17.766 18.0453 17.6527 18.0453H14.3377C14.3523 18.2152 14.464 18.2588 14.5401 18.3203C15.6116 19.1858 16.6815 20.0528 17.7627 20.907C17.8356 20.9555 17.8938 21.0186 17.9392 21.0898C17.9392 21.0898 18.0039 21.1965 18.0088 21.2499C18.0266 21.3146 18.033 21.3826 18.0266 21.4505C18.0088 21.931 18.0266 22.4147 18.0266 22.8967C18.0266 22.9566 18.0233 23.0181 18.0185 23.0941V24.7458C18.1884 24.7312 18.2321 24.6196 18.2936 24.5435C19.1596 23.4726 20.0272 22.4033 20.8818 21.3227C21.0016 21.1432 21.2104 21.0429 21.4257 21.059C21.4305 21.059 21.4354 21.059 21.4402 21.059C21.5098 21.0542 21.5794 21.0477 21.649 21.0477H24.964L24.9624 21.0461Z" fill="#F2EFE9"/>
<path d="M22.9148 17.1718L25.6373 19.3848L29.6013 16.3257C28.58 13.1534 26.0808 10.6428 22.9148 9.6026V17.1718Z" fill="#F2EFE9"/>
<path d="M18.2872 9.3195C19.0042 10.2303 19.7229 11.141 20.4448 12.0518C20.5095 12.1343 20.5807 12.2103 20.6746 12.3171C20.8802 12.0599 21.0728 11.8366 21.2379 11.5972C21.2848 11.5001 21.3027 11.3918 21.2913 11.2834C21.2913 10.6848 21.2913 10.0847 21.2994 9.48612C21.2994 9.39714 21.3075 9.30979 21.3156 9.21435C20.7734 9.12699 20.2166 9.0817 19.65 9.0817C19.1483 9.0817 18.6546 9.11728 18.1706 9.18685C18.2127 9.22567 18.2499 9.27097 18.2872 9.3195Z" fill="#F2EFE9"/>
<path d="M29.9623 18.0857C29.051 18.8024 28.1397 19.5206 27.2284 20.2421C27.1459 20.3068 27.0698 20.378 26.963 20.4718C27.2203 20.6773 27.4437 20.8698 27.6833 21.0348C27.7804 21.0817 27.8888 21.0995 27.9973 21.0882C28.5962 21.0882 29.1967 21.0882 29.7956 21.0962C29.8587 21.0962 29.9202 21.1011 29.9849 21.106C30.0626 20.5931 30.1031 20.0674 30.1031 19.5319C30.1031 19.0321 30.0675 18.5403 29.9995 18.0582C29.9882 18.0679 29.9752 18.0776 29.9623 18.0873V18.0857Z" fill="#F2EFE9"/>
<path d="M17.3581 16.3775L19.5853 13.6403L16.4484 9.57996C13.2338 10.612 10.6974 13.1567 9.67772 16.3775H17.3581Z" fill="#F2EFE9"/>
<path d="M16.348 21.8905L13.6579 19.7034L9.702 22.7576C10.725 25.9089 13.2047 28.4033 16.348 29.4468V21.8905Z" fill="#F2EFE9"/>
<path d="M20.9773 29.7412C20.2603 28.8304 19.5416 27.9196 18.8197 27.0089C18.7549 26.9264 18.6837 26.8504 18.5898 26.7436C18.3843 27.0008 18.1917 27.224 18.0266 27.4635C17.9796 27.5605 17.9618 27.6689 17.9731 27.7773C17.9731 28.3758 17.9731 28.976 17.9651 29.5745C17.9651 29.6619 17.957 29.7476 17.9489 29.8398C18.5024 29.9304 19.069 29.9773 19.6468 29.9773C20.1389 29.9773 20.6228 29.9434 21.0971 29.877C21.0534 29.8382 21.0145 29.7897 20.9757 29.7395L20.9773 29.7412Z" fill="#F2EFE9"/>
<path d="M21.8805 22.7123L19.6759 25.4203L22.8209 29.4888C26.0387 28.4648 28.5816 25.9267 29.6078 22.7123H21.8805Z" fill="#F2EFE9"/>
<path d="M12.3339 18.618C12.0765 18.4125 11.8531 18.22 11.6136 18.055C11.5165 18.0081 11.408 17.9903 11.2996 18.0016C10.7007 18.0016 10.1002 18.0016 9.50129 17.9935C9.43655 17.9935 9.37342 17.9887 9.30868 17.9838C9.23422 18.4885 9.19376 19.0046 9.19376 19.5303C9.19376 20.0561 9.23098 20.5398 9.30058 21.0299C9.31192 21.0218 9.32325 21.0121 9.33296 21.004C10.2442 20.2874 11.1555 19.5692 12.0668 18.8477C12.1494 18.783 12.2254 18.7118 12.3323 18.618H12.3339Z" fill="#F2EFE9"/>
<path d="M56.7343 21.0995C56.7197 20.9296 56.608 20.8859 56.5319 20.8229C55.4588 19.9558 54.3889 19.0887 53.306 18.2329C53.2235 18.1779 53.1587 18.1051 53.1134 18.021C53.1134 18.021 53.0179 17.7929 53.0179 17.6797V14.3634C52.8479 14.378 52.8042 14.4896 52.7411 14.5656C51.8735 15.6382 51.0059 16.7075 50.1497 17.7897C50.0574 17.9272 49.5298 18.0938 49.4149 18.0938H46.0967C46.1112 18.2637 46.2229 18.3074 46.299 18.3704C47.3722 19.2375 48.4421 20.1046 49.5249 20.9604C49.5978 21.0089 49.656 21.072 49.7013 21.1432C49.7013 21.1432 49.7661 21.2515 49.7709 21.3033C49.7887 21.368 49.7952 21.436 49.7888 21.5039C49.7709 21.986 49.7888 22.4697 49.7888 22.9501C49.7888 23.01 49.7855 23.0714 49.7807 23.1475V24.8007C49.9506 24.7862 49.9943 24.6746 50.0574 24.5985C50.925 23.526 51.7926 22.4567 52.6488 21.3745C52.7702 21.1949 52.9774 21.0946 53.1927 21.1108C53.1976 21.1108 53.2024 21.1108 53.2073 21.1108C53.2769 21.106 53.3465 21.0995 53.4161 21.0995H56.7343Z" fill="#F2EFE9"/>
<path d="M54.6867 17.2219L57.4124 19.4381L61.3797 16.3758C60.3567 13.2003 57.8559 10.6881 54.6883 9.64789V17.2235L54.6867 17.2219Z" fill="#F2EFE9"/>
<path d="M50.0542 9.36317C50.7729 10.2755 51.4915 11.1863 52.2134 12.0987C52.2782 12.1812 52.3494 12.2572 52.4433 12.364C52.6488 12.1068 52.8431 11.8819 53.0066 11.6425C53.0535 11.5454 53.0713 11.437 53.06 11.3287C53.06 10.7285 53.06 10.1299 53.0681 9.52979C53.0681 9.44082 53.0762 9.35346 53.0842 9.25802C52.542 9.17066 51.9852 9.12537 51.4171 9.12537C50.9153 9.12537 50.42 9.16096 49.9377 9.23052C49.9797 9.26934 50.017 9.31464 50.0542 9.36317Z" fill="#F2EFE9"/>
<path d="M61.739 18.1375C60.8261 18.8557 59.9148 19.574 59.0019 20.2955C58.9194 20.3602 58.8433 20.4314 58.7365 20.5252C58.9938 20.7306 59.2188 20.9248 59.4584 21.0881C59.5555 21.1351 59.6639 21.1529 59.7724 21.1415C60.3729 21.1415 60.9718 21.1415 61.5723 21.1496C61.6354 21.1496 61.6969 21.1545 61.7617 21.1593C61.8394 20.6449 61.8798 20.1192 61.8798 19.5837C61.8798 19.0822 61.8442 18.5904 61.7762 18.1084C61.7649 18.1181 61.752 18.1278 61.739 18.1375Z" fill="#F2EFE9"/>
<path d="M49.1251 16.4276L51.354 13.6889L48.2138 9.62524C44.996 10.6589 42.458 13.2052 41.4383 16.4276H49.1251Z" fill="#F2EFE9"/>
<path d="M48.1135 21.9455L45.4217 19.7568L41.4626 22.8126C42.4872 25.9655 44.9685 28.4616 48.1135 29.5082V21.9455Z" fill="#F2EFE9"/>
<path d="M52.746 29.8026C52.0273 28.8903 51.3086 27.9795 50.5867 27.0671C50.522 26.9846 50.4508 26.9086 50.3569 26.8018C50.1513 27.059 49.9571 27.2839 49.7936 27.5233C49.7467 27.6204 49.7289 27.7288 49.7402 27.8371C49.7402 28.4373 49.7402 29.0358 49.7321 29.636C49.7321 29.7234 49.724 29.8091 49.7159 29.9013C50.2695 29.9919 50.8376 30.0388 51.4155 30.0388C51.9075 30.0388 52.3915 30.0032 52.8657 29.9385C52.822 29.8997 52.7832 29.8512 52.7443 29.801L52.746 29.8026Z" fill="#F2EFE9"/>
<path d="M53.6508 22.7673L51.4446 25.4769L54.5912 29.5486C57.8122 28.5247 60.3567 25.9833 61.3845 22.7657H53.6508V22.7673Z" fill="#F2EFE9"/>
<path d="M44.0961 18.6697C43.8387 18.4643 43.6137 18.2701 43.3742 18.1068C43.277 18.0598 43.1686 18.0421 43.0601 18.0534C42.4596 18.0534 41.8607 18.0534 41.2602 18.0453C41.1955 18.0453 41.1324 18.0404 41.0676 18.0356C40.9932 18.5403 40.9527 19.058 40.9527 19.5837C40.9527 20.1095 40.9899 20.5948 41.0611 21.0849C41.0725 21.0768 41.0838 21.0671 41.0935 21.059C42.0064 20.3408 42.9177 19.6225 43.8306 18.901C43.9132 18.8363 43.9892 18.7652 44.0961 18.6713V18.6697Z" fill="#F2EFE9"/>
<path d="M21.1877 31.5352C19.527 34.6589 17.8679 37.7875 16.2121 40.921C16.0616 41.2025 15.9369 41.4969 15.754 41.8884C16.7268 42.144 17.5895 42.4077 18.462 42.5727C18.7922 42.5824 19.1175 42.5015 19.4024 42.3381C21.0761 41.6004 22.7513 40.8611 24.4331 40.1445C24.6095 40.0669 24.7875 40.0021 24.9721 39.9374C24.5561 38.4087 24.0203 36.8897 23.3599 35.3966C22.7432 34.0005 22.0359 32.6708 21.2525 31.4106C21.2314 31.4527 21.2088 31.4947 21.1861 31.5368L21.1877 31.5352Z" fill="#F2EFE9"/>
<path d="M49.6398 31.3783C51.3005 34.502 52.9596 37.6306 54.6155 40.7641C54.766 41.0456 54.8906 41.34 55.0735 41.7315C54.1008 41.987 53.238 42.2507 52.3656 42.4157C52.0354 42.4254 51.71 42.3446 51.4252 42.1812C49.7515 41.4435 48.0762 40.7042 46.3945 39.9876C46.2181 39.9099 46.04 39.8452 45.8555 39.7805C46.2715 38.2518 46.8073 36.7328 47.4676 35.2397C48.0843 33.8436 48.7917 32.5139 49.5751 31.2537C49.5961 31.2958 49.6188 31.3378 49.6415 31.3799L49.6398 31.3783Z" fill="#F2EFE9"/>
<path d="M29.1012 30.3009L35.2665 36.4626L41.4318 30.3009L35.5854 12.4837L29.1012 30.3009Z" fill="#F2EFE9"/>
</svg>
